<svg xmlns="http://www.w3.org/2000/svg" viewBox="0 0 288 216" width="320" shape-rendering="crispEdges" role="img" aria-label="Noodle Test Framework — pixel-art ramen bowl">
<title>Noodle Test Framework</title>
<rect x="0" y="0" width="288" height="216" fill="none"/>
<rect x="108" y="0" width="12" height="12" fill="#b7b7b7"/>
<rect x="120" y="12" width="12" height="12" fill="#b7b7b7"/>
<rect x="108" y="24" width="12" height="12" fill="#b7b7b7"/>
<rect x="120" y="36" width="12" height="12" fill="#b7b7b7"/>
<rect x="156" y="24" width="12" height="12" fill="#b7b7b7"/>
<rect x="156" y="36" width="12" height="12" fill="#b7b7b7"/>
<rect x="168" y="48" width="12" height="12" fill="#b7b7b7"/>
<rect x="168" y="60" width="12" height="12" fill="#b7b7b7"/>
<rect x="204" y="36" width="12" height="12" fill="#c9975b"/>
<rect x="228" y="36" width="12" height="12" fill="#c9975b"/>
<rect x="204" y="48" width="12" height="12" fill="#c9975b"/>
<rect x="228" y="48" width="12" height="12" fill="#c9975b"/>
<rect x="192" y="60" width="12" height="12" fill="#c9975b"/>
<rect x="216" y="60" width="12" height="12" fill="#c9975b"/>
<rect x="192" y="72" width="12" height="12" fill="#c9975b"/>
<rect x="216" y="72" width="12" height="12" fill="#c9975b"/>
<rect x="180" y="84" width="12" height="12" fill="#c9975b"/>
<rect x="204" y="84" width="12" height="12" fill="#c9975b"/>
<rect x="180" y="96" width="12" height="12" fill="#6b4423"/>
<rect x="204" y="96" width="12" height="12" fill="#6b4423"/>
<rect x="36" y="108" width="12" height="12" fill="#5c1810"/>
<rect x="48" y="108" width="12" height="12" fill="#e0492c"/>
<rect x="60" y="108" width="12" height="12" fill="#e0492c"/>
<rect x="72" y="108" width="12" height="12" fill="#e0492c"/>
<rect x="84" y="108" width="12" height="12" fill="#e0492c"/>
<rect x="96" y="108" width="12" height="12" fill="#e0492c"/>
<rect x="108" y="108" width="12" height="12" fill="#e0492c"/>
<rect x="120" y="108" width="12" height="12" fill="#e0492c"/>
<rect x="132" y="108" width="12" height="12" fill="#e0492c"/>
<rect x="144" y="108" width="12" height="12" fill="#e0492c"/>
<rect x="156" y="108" width="12" height="12" fill="#e0492c"/>
<rect x="168" y="108" width="12" height="12" fill="#6b4423"/>
<rect x="180" y="108" width="12" height="12" fill="#e0492c"/>
<rect x="192" y="108" width="12" height="12" fill="#6b4423"/>
<rect x="204" y="108" width="12" height="12" fill="#e0492c"/>
<rect x="216" y="108" width="12" height="12" fill="#e0492c"/>
<rect x="228" y="108" width="12" height="12" fill="#e0492c"/>
<rect x="240" y="108" width="12" height="12" fill="#5c1810"/>
<rect x="48" y="108" width="12" height="7" fill="#7a2415"/>
<rect x="60" y="108" width="12" height="7" fill="#7a2415"/>
<rect x="72" y="108" width="12" height="7" fill="#7a2415"/>
<rect x="84" y="108" width="12" height="7" fill="#7a2415"/>
<rect x="96" y="108" width="12" height="7" fill="#7a2415"/>
<rect x="108" y="108" width="12" height="7" fill="#7a2415"/>
<rect x="120" y="108" width="12" height="7" fill="#7a2415"/>
<rect x="132" y="108" width="12" height="7" fill="#7a2415"/>
<rect x="144" y="108" width="12" height="7" fill="#7a2415"/>
<rect x="156" y="108" width="12" height="7" fill="#7a2415"/>
<rect x="168" y="108" width="12" height="7" fill="#3a2412"/>
<rect x="180" y="108" width="12" height="7" fill="#7a2415"/>
<rect x="192" y="108" width="12" height="7" fill="#3a2412"/>
<rect x="204" y="108" width="12" height="7" fill="#7a2415"/>
<rect x="216" y="108" width="12" height="7" fill="#7a2415"/>
<rect x="228" y="108" width="12" height="7" fill="#7a2415"/>
<rect x="48" y="120" width="12" height="12" fill="#8a4a08"/>
<rect x="60" y="120" width="12" height="12" fill="#5c9e1e"/>
<rect x="72" y="120" width="12" height="12" fill="#fdeec2"/>
<rect x="84" y="120" width="12" height="12" fill="#c2790a"/>
<rect x="96" y="120" width="12" height="12" fill="#fffaf0"/>
<rect x="108" y="120" width="12" height="12" fill="#fffaf0"/>
<rect x="120" y="120" width="12" height="12" fill="#fdeec2"/>
<rect x="132" y="120" width="12" height="12" fill="#c2790a"/>
<rect x="144" y="120" width="12" height="12" fill="#fdeec2"/>
<rect x="156" y="120" width="12" height="12" fill="#e3a878"/>
<rect x="168" y="120" width="12" height="12" fill="#7a3d15"/>
<rect x="180" y="120" width="12" height="12" fill="#c2790a"/>
<rect x="192" y="120" width="12" height="12" fill="#5c9e1e"/>
<rect x="204" y="120" width="12" height="12" fill="#c2790a"/>
<rect x="216" y="120" width="12" height="12" fill="#e8c97a"/>
<rect x="228" y="120" width="12" height="12" fill="#8a4a08"/>
<rect x="156" y="120" width="12" height="8" fill="#3a2412"/>
<rect x="180" y="120" width="12" height="8" fill="#3a2412"/>
<rect x="48" y="132" width="12" height="12" fill="#8a4a08"/>
<rect x="60" y="132" width="12" height="12" fill="#c2790a"/>
<rect x="72" y="132" width="12" height="12" fill="#c2790a"/>
<rect x="84" y="132" width="12" height="12" fill="#fdeec2"/>
<rect x="96" y="132" width="12" height="12" fill="#f2b705"/>
<rect x="108" y="132" width="12" height="12" fill="#fffaf0"/>
<rect x="120" y="132" width="12" height="12" fill="#c2790a"/>
<rect x="132" y="132" width="12" height="12" fill="#fdeec2"/>
<rect x="144" y="132" width="12" height="12" fill="#c2790a"/>
<rect x="156" y="132" width="12" height="12" fill="#e3a878"/>
<rect x="168" y="132" width="12" height="12" fill="#e3a878"/>
<rect x="180" y="132" width="12" height="12" fill="#fdeec2"/>
<rect x="192" y="132" width="12" height="12" fill="#c2790a"/>
<rect x="204" y="132" width="12" height="12" fill="#5c9e1e"/>
<rect x="216" y="132" width="12" height="12" fill="#e8c97a"/>
<rect x="228" y="132" width="12" height="12" fill="#8a4a08"/>
<rect x="24" y="144" width="12" height="12" fill="#5c1810"/>
<rect x="36" y="144" width="12" height="12" fill="#b8341f"/>
<rect x="48" y="144" width="12" height="12" fill="#b8341f"/>
<rect x="60" y="144" width="12" height="12" fill="#b8341f"/>
<rect x="72" y="144" width="12" height="12" fill="#b8341f"/>
<rect x="84" y="144" width="12" height="12" fill="#b8341f"/>
<rect x="96" y="144" width="12" height="12" fill="#b8341f"/>
<rect x="108" y="144" width="12" height="12" fill="#b8341f"/>
<rect x="120" y="144" width="12" height="12" fill="#b8341f"/>
<rect x="132" y="144" width="12" height="12" fill="#b8341f"/>
<rect x="144" y="144" width="12" height="12" fill="#b8341f"/>
<rect x="156" y="144" width="12" height="12" fill="#b8341f"/>
<rect x="168" y="144" width="12" height="12" fill="#b8341f"/>
<rect x="180" y="144" width="12" height="12" fill="#b8341f"/>
<rect x="192" y="144" width="12" height="12" fill="#b8341f"/>
<rect x="204" y="144" width="12" height="12" fill="#b8341f"/>
<rect x="216" y="144" width="12" height="12" fill="#b8341f"/>
<rect x="228" y="144" width="12" height="12" fill="#b8341f"/>
<rect x="240" y="144" width="12" height="12" fill="#b8341f"/>
<rect x="252" y="144" width="12" height="12" fill="#5c1810"/>
<rect x="36" y="156" width="12" height="12" fill="#5c1810"/>
<rect x="48" y="156" width="12" height="12" fill="#b8341f"/>
<rect x="60" y="156" width="12" height="12" fill="#b8341f"/>
<rect x="72" y="156" width="12" height="12" fill="#b8341f"/>
<rect x="84" y="156" width="12" height="12" fill="#b8341f"/>
<rect x="96" y="156" width="12" height="12" fill="#b8341f"/>
<rect x="108" y="156" width="12" height="12" fill="#b8341f"/>
<rect x="120" y="156" width="12" height="12" fill="#b8341f"/>
<rect x="132" y="156" width="12" height="12" fill="#b8341f"/>
<rect x="144" y="156" width="12" height="12" fill="#b8341f"/>
<rect x="156" y="156" width="12" height="12" fill="#b8341f"/>
<rect x="168" y="156" width="12" height="12" fill="#b8341f"/>
<rect x="180" y="156" width="12" height="12" fill="#b8341f"/>
<rect x="192" y="156" width="12" height="12" fill="#b8341f"/>
<rect x="204" y="156" width="12" height="12" fill="#b8341f"/>
<rect x="216" y="156" width="12" height="12" fill="#b8341f"/>
<rect x="228" y="156" width="12" height="12" fill="#b8341f"/>
<rect x="240" y="156" width="12" height="12" fill="#5c1810"/>
<rect x="48" y="168" width="12" height="12" fill="#5c1810"/>
<rect x="60" y="168" width="12" height="12" fill="#b8341f"/>
<rect x="72" y="168" width="12" height="12" fill="#b8341f"/>
<rect x="84" y="168" width="12" height="12" fill="#b8341f"/>
<rect x="96" y="168" width="12" height="12" fill="#b8341f"/>
<rect x="108" y="168" width="12" height="12" fill="#b8341f"/>
<rect x="120" y="168" width="12" height="12" fill="#b8341f"/>
<rect x="132" y="168" width="12" height="12" fill="#b8341f"/>
<rect x="144" y="168" width="12" height="12" fill="#b8341f"/>
<rect x="156" y="168" width="12" height="12" fill="#b8341f"/>
<rect x="168" y="168" width="12" height="12" fill="#b8341f"/>
<rect x="180" y="168" width="12" height="12" fill="#b8341f"/>
<rect x="192" y="168" width="12" height="12" fill="#b8341f"/>
<rect x="204" y="168" width="12" height="12" fill="#b8341f"/>
<rect x="216" y="168" width="12" height="12" fill="#b8341f"/>
<rect x="228" y="168" width="12" height="12" fill="#5c1810"/>
<rect x="60" y="180" width="12" height="12" fill="#5c1810"/>
<rect x="72" y="180" width="12" height="12" fill="#b8341f"/>
<rect x="84" y="180" width="12" height="12" fill="#b8341f"/>
<rect x="96" y="180" width="12" height="12" fill="#b8341f"/>
<rect x="108" y="180" width="12" height="12" fill="#b8341f"/>
<rect x="120" y="180" width="12" height="12" fill="#b8341f"/>
<rect x="132" y="180" width="12" height="12" fill="#b8341f"/>
<rect x="144" y="180" width="12" height="12" fill="#b8341f"/>
<rect x="156" y="180" width="12" height="12" fill="#b8341f"/>
<rect x="168" y="180" width="12" height="12" fill="#b8341f"/>
<rect x="180" y="180" width="12" height="12" fill="#b8341f"/>
<rect x="192" y="180" width="12" height="12" fill="#b8341f"/>
<rect x="204" y="180" width="12" height="12" fill="#b8341f"/>
<rect x="216" y="180" width="12" height="12" fill="#5c1810"/>
<rect x="72" y="192" width="12" height="12" fill="#5c1810"/>
<rect x="84" y="192" width="12" height="12" fill="#b8341f"/>
<rect x="96" y="192" width="12" height="12" fill="#b8341f"/>
<rect x="108" y="192" width="12" height="12" fill="#b8341f"/>
<rect x="120" y="192" width="12" height="12" fill="#b8341f"/>
<rect x="132" y="192" width="12" height="12" fill="#b8341f"/>
<rect x="144" y="192" width="12" height="12" fill="#b8341f"/>
<rect x="156" y="192" width="12" height="12" fill="#b8341f"/>
<rect x="168" y="192" width="12" height="12" fill="#b8341f"/>
<rect x="180" y="192" width="12" height="12" fill="#b8341f"/>
<rect x="192" y="192" width="12" height="12" fill="#b8341f"/>
<rect x="204" y="192" width="12" height="12" fill="#5c1810"/>
<rect x="72" y="204" width="12" height="12" fill="#5c1810"/>
<rect x="84" y="204" width="12" height="12" fill="#5c1810"/>
<rect x="96" y="204" width="12" height="12" fill="#5c1810"/>
<rect x="108" y="204" width="12" height="12" fill="#5c1810"/>
<rect x="120" y="204" width="12" height="12" fill="#5c1810"/>
<rect x="132" y="204" width="12" height="12" fill="#5c1810"/>
<rect x="144" y="204" width="12" height="12" fill="#5c1810"/>
<rect x="156" y="204" width="12" height="12" fill="#5c1810"/>
<rect x="168" y="204" width="12" height="12" fill="#5c1810"/>
<rect x="180" y="204" width="12" height="12" fill="#5c1810"/>
<rect x="192" y="204" width="12" height="12" fill="#5c1810"/>
<rect x="204" y="204" width="12" height="12" fill="#5c1810"/>
<g>
<rect x="74.0" y="172.0" width="4" height="4" fill="#fdf2e9" stroke="#5c1810" stroke-width="0.5"/>
<rect x="90.0" y="172.0" width="4" height="4" fill="#fdf2e9" stroke="#5c1810" stroke-width="0.5"/>
<rect x="74.0" y="176.0" width="4" height="4" fill="#fdf2e9" stroke="#5c1810" stroke-width="0.5"/>
<rect x="78.0" y="176.0" width="4" height="4" fill="#fdf2e9" stroke="#5c1810" stroke-width="0.5"/>
<rect x="90.0" y="176.0" width="4" height="4" fill="#fdf2e9" stroke="#5c1810" stroke-width="0.5"/>
<rect x="74.0" y="180.0" width="4" height="4" fill="#fdf2e9" stroke="#5c1810" stroke-width="0.5"/>
<rect x="82.0" y="180.0" width="4" height="4" fill="#fdf2e9" stroke="#5c1810" stroke-width="0.5"/>
<rect x="90.0" y="180.0" width="4" height="4" fill="#fdf2e9" stroke="#5c1810" stroke-width="0.5"/>
<rect x="74.0" y="184.0" width="4" height="4" fill="#fdf2e9" stroke="#5c1810" stroke-width="0.5"/>
<rect x="82.0" y="184.0" width="4" height="4" fill="#fdf2e9" stroke="#5c1810" stroke-width="0.5"/>
<rect x="90.0" y="184.0" width="4" height="4" fill="#fdf2e9" stroke="#5c1810" stroke-width="0.5"/>
<rect x="74.0" y="188.0" width="4" height="4" fill="#fdf2e9" stroke="#5c1810" stroke-width="0.5"/>
<rect x="86.0" y="188.0" width="4" height="4" fill="#fdf2e9" stroke="#5c1810" stroke-width="0.5"/>
<rect x="90.0" y="188.0" width="4" height="4" fill="#fdf2e9" stroke="#5c1810" stroke-width="0.5"/>
<rect x="74.0" y="192.0" width="4" height="4" fill="#fdf2e9" stroke="#5c1810" stroke-width="0.5"/>
<rect x="90.0" y="192.0" width="4" height="4" fill="#fdf2e9" stroke="#5c1810" stroke-width="0.5"/>
<rect x="74.0" y="196.0" width="4" height="4" fill="#fdf2e9" stroke="#5c1810" stroke-width="0.5"/>
<rect x="90.0" y="196.0" width="4" height="4" fill="#fdf2e9" stroke="#5c1810" stroke-width="0.5"/>
<rect x="102.0" y="172.0" width="4" height="4" fill="#fdf2e9" stroke="#5c1810" stroke-width="0.5"/>
<rect x="106.0" y="172.0" width="4" height="4" fill="#fdf2e9" stroke="#5c1810" stroke-width="0.5"/>
<rect x="110.0" y="172.0" width="4" height="4" fill="#fdf2e9" stroke="#5c1810" stroke-width="0.5"/>
<rect x="98.0" y="176.0" width="4" height="4" fill="#fdf2e9" stroke="#5c1810" stroke-width="0.5"/>
<rect x="114.0" y="176.0" width="4" height="4" fill="#fdf2e9" stroke="#5c1810" stroke-width="0.5"/>
<rect x="98.0" y="180.0" width="4" height="4" fill="#fdf2e9" stroke="#5c1810" stroke-width="0.5"/>
<rect x="114.0" y="180.0" width="4" height="4" fill="#fdf2e9" stroke="#5c1810" stroke-width="0.5"/>
<rect x="98.0" y="184.0" width="4" height="4" fill="#fdf2e9" stroke="#5c1810" stroke-width="0.5"/>
<rect x="114.0" y="184.0" width="4" height="4" fill="#fdf2e9" stroke="#5c1810" stroke-width="0.5"/>
<rect x="98.0" y="188.0" width="4" height="4" fill="#fdf2e9" stroke="#5c1810" stroke-width="0.5"/>
<rect x="114.0" y="188.0" width="4" height="4" fill="#fdf2e9" stroke="#5c1810" stroke-width="0.5"/>
<rect x="98.0" y="192.0" width="4" height="4" fill="#fdf2e9" stroke="#5c1810" stroke-width="0.5"/>
<rect x="114.0" y="192.0" width="4" height="4" fill="#fdf2e9" stroke="#5c1810" stroke-width="0.5"/>
<rect x="102.0" y="196.0" width="4" height="4" fill="#fdf2e9" stroke="#5c1810" stroke-width="0.5"/>
<rect x="106.0" y="196.0" width="4" height="4" fill="#fdf2e9" stroke="#5c1810" stroke-width="0.5"/>
<rect x="110.0" y="196.0" width="4" height="4" fill="#fdf2e9" stroke="#5c1810" stroke-width="0.5"/>
<rect x="126.0" y="172.0" width="4" height="4" fill="#fdf2e9" stroke="#5c1810" stroke-width="0.5"/>
<rect x="130.0" y="172.0" width="4" height="4" fill="#fdf2e9" stroke="#5c1810" stroke-width="0.5"/>
<rect x="134.0" y="172.0" width="4" height="4" fill="#fdf2e9" stroke="#5c1810" stroke-width="0.5"/>
<rect x="122.0" y="176.0" width="4" height="4" fill="#fdf2e9" stroke="#5c1810" stroke-width="0.5"/>
<rect x="138.0" y="176.0" width="4" height="4" fill="#fdf2e9" stroke="#5c1810" stroke-width="0.5"/>
<rect x="122.0" y="180.0" width="4" height="4" fill="#fdf2e9" stroke="#5c1810" stroke-width="0.5"/>
<rect x="138.0" y="180.0" width="4" height="4" fill="#fdf2e9" stroke="#5c1810" stroke-width="0.5"/>
<rect x="122.0" y="184.0" width="4" height="4" fill="#fdf2e9" stroke="#5c1810" stroke-width="0.5"/>
<rect x="138.0" y="184.0" width="4" height="4" fill="#fdf2e9" stroke="#5c1810" stroke-width="0.5"/>
<rect x="122.0" y="188.0" width="4" height="4" fill="#fdf2e9" stroke="#5c1810" stroke-width="0.5"/>
<rect x="138.0" y="188.0" width="4" height="4" fill="#fdf2e9" stroke="#5c1810" stroke-width="0.5"/>
<rect x="122.0" y="192.0" width="4" height="4" fill="#fdf2e9" stroke="#5c1810" stroke-width="0.5"/>
<rect x="138.0" y="192.0" width="4" height="4" fill="#fdf2e9" stroke="#5c1810" stroke-width="0.5"/>
<rect x="126.0" y="196.0" width="4" height="4" fill="#fdf2e9" stroke="#5c1810" stroke-width="0.5"/>
<rect x="130.0" y="196.0" width="4" height="4" fill="#fdf2e9" stroke="#5c1810" stroke-width="0.5"/>
<rect x="134.0" y="196.0" width="4" height="4" fill="#fdf2e9" stroke="#5c1810" stroke-width="0.5"/>
<rect x="146.0" y="172.0" width="4" height="4" fill="#fdf2e9" stroke="#5c1810" stroke-width="0.5"/>
<rect x="150.0" y="172.0" width="4" height="4" fill="#fdf2e9" stroke="#5c1810" stroke-width="0.5"/>
<rect x="154.0" y="172.0" width="4" height="4" fill="#fdf2e9" stroke="#5c1810" stroke-width="0.5"/>
<rect x="146.0" y="176.0" width="4" height="4" fill="#fdf2e9" stroke="#5c1810" stroke-width="0.5"/>
<rect x="158.0" y="176.0" width="4" height="4" fill="#fdf2e9" stroke="#5c1810" stroke-width="0.5"/>
<rect x="146.0" y="180.0" width="4" height="4" fill="#fdf2e9" stroke="#5c1810" stroke-width="0.5"/>
<rect x="162.0" y="180.0" width="4" height="4" fill="#fdf2e9" stroke="#5c1810" stroke-width="0.5"/>
<rect x="146.0" y="184.0" width="4" height="4" fill="#fdf2e9" stroke="#5c1810" stroke-width="0.5"/>
<rect x="162.0" y="184.0" width="4" height="4" fill="#fdf2e9" stroke="#5c1810" stroke-width="0.5"/>
<rect x="146.0" y="188.0" width="4" height="4" fill="#fdf2e9" stroke="#5c1810" stroke-width="0.5"/>
<rect x="162.0" y="188.0" width="4" height="4" fill="#fdf2e9" stroke="#5c1810" stroke-width="0.5"/>
<rect x="146.0" y="192.0" width="4" height="4" fill="#fdf2e9" stroke="#5c1810" stroke-width="0.5"/>
<rect x="158.0" y="192.0" width="4" height="4" fill="#fdf2e9" stroke="#5c1810" stroke-width="0.5"/>
<rect x="146.0" y="196.0" width="4" height="4" fill="#fdf2e9" stroke="#5c1810" stroke-width="0.5"/>
<rect x="150.0" y="196.0" width="4" height="4" fill="#fdf2e9" stroke="#5c1810" stroke-width="0.5"/>
<rect x="154.0" y="196.0" width="4" height="4" fill="#fdf2e9" stroke="#5c1810" stroke-width="0.5"/>
<rect x="170.0" y="172.0" width="4" height="4" fill="#fdf2e9" stroke="#5c1810" stroke-width="0.5"/>
<rect x="170.0" y="176.0" width="4" height="4" fill="#fdf2e9" stroke="#5c1810" stroke-width="0.5"/>
<rect x="170.0" y="180.0" width="4" height="4" fill="#fdf2e9" stroke="#5c1810" stroke-width="0.5"/>
<rect x="170.0" y="184.0" width="4" height="4" fill="#fdf2e9" stroke="#5c1810" stroke-width="0.5"/>
<rect x="170.0" y="188.0" width="4" height="4" fill="#fdf2e9" stroke="#5c1810" stroke-width="0.5"/>
<rect x="170.0" y="192.0" width="4" height="4" fill="#fdf2e9" stroke="#5c1810" stroke-width="0.5"/>
<rect x="170.0" y="196.0" width="4" height="4" fill="#fdf2e9" stroke="#5c1810" stroke-width="0.5"/>
<rect x="174.0" y="196.0" width="4" height="4" fill="#fdf2e9" stroke="#5c1810" stroke-width="0.5"/>
<rect x="178.0" y="196.0" width="4" height="4" fill="#fdf2e9" stroke="#5c1810" stroke-width="0.5"/>
<rect x="182.0" y="196.0" width="4" height="4" fill="#fdf2e9" stroke="#5c1810" stroke-width="0.5"/>
<rect x="186.0" y="196.0" width="4" height="4" fill="#fdf2e9" stroke="#5c1810" stroke-width="0.5"/>
<rect x="194.0" y="172.0" width="4" height="4" fill="#fdf2e9" stroke="#5c1810" stroke-width="0.5"/>
<rect x="198.0" y="172.0" width="4" height="4" fill="#fdf2e9" stroke="#5c1810" stroke-width="0.5"/>
<rect x="202.0" y="172.0" width="4" height="4" fill="#fdf2e9" stroke="#5c1810" stroke-width="0.5"/>
<rect x="206.0" y="172.0" width="4" height="4" fill="#fdf2e9" stroke="#5c1810" stroke-width="0.5"/>
<rect x="210.0" y="172.0" width="4" height="4" fill="#fdf2e9" stroke="#5c1810" stroke-width="0.5"/>
<rect x="194.0" y="176.0" width="4" height="4" fill="#fdf2e9" stroke="#5c1810" stroke-width="0.5"/>
<rect x="194.0" y="180.0" width="4" height="4" fill="#fdf2e9" stroke="#5c1810" stroke-width="0.5"/>
<rect x="198.0" y="180.0" width="4" height="4" fill="#fdf2e9" stroke="#5c1810" stroke-width="0.5"/>
<rect x="202.0" y="180.0" width="4" height="4" fill="#fdf2e9" stroke="#5c1810" stroke-width="0.5"/>
<rect x="206.0" y="180.0" width="4" height="4" fill="#fdf2e9" stroke="#5c1810" stroke-width="0.5"/>
<rect x="194.0" y="184.0" width="4" height="4" fill="#fdf2e9" stroke="#5c1810" stroke-width="0.5"/>
<rect x="194.0" y="188.0" width="4" height="4" fill="#fdf2e9" stroke="#5c1810" stroke-width="0.5"/>
<rect x="194.0" y="192.0" width="4" height="4" fill="#fdf2e9" stroke="#5c1810" stroke-width="0.5"/>
<rect x="194.0" y="196.0" width="4" height="4" fill="#fdf2e9" stroke="#5c1810" stroke-width="0.5"/>
<rect x="198.0" y="196.0" width="4" height="4" fill="#fdf2e9" stroke="#5c1810" stroke-width="0.5"/>
<rect x="202.0" y="196.0" width="4" height="4" fill="#fdf2e9" stroke="#5c1810" stroke-width="0.5"/>
<rect x="206.0" y="196.0" width="4" height="4" fill="#fdf2e9" stroke="#5c1810" stroke-width="0.5"/>
<rect x="210.0" y="196.0" width="4" height="4" fill="#fdf2e9" stroke="#5c1810" stroke-width="0.5"/>
</g>
</svg>
